# Blender 3.6.10
# www.blender.org
mtllib mush4.mtl
o Cylinder.003
v -0.168909 -0.004778 -0.461139
v -0.103756 0.157733 -0.554973
v -0.062990 -0.004778 -0.823349
v -0.055221 0.158141 -0.718557
v 0.090499 -0.004778 -0.581873
v 0.061762 0.158327 -0.593597
v -0.009135 0.422334 -0.599253
v 0.013876 0.425927 -0.693962
v 0.079257 0.425711 -0.616388
v 0.012988 0.649971 -0.593065
v 0.042089 0.660184 -0.724792
v 0.133648 0.658484 -0.621900
v -0.101265 1.284418 -0.559982
v -0.208023 1.005653 -0.445329
v -0.268152 0.573728 -0.338143
v -0.153241 1.301847 -0.730210
v -0.309335 1.026399 -0.704006
v -0.408916 0.584749 -0.621279
v -0.040415 1.306581 -0.861089
v -0.091599 1.035534 -0.956581
v -0.128394 0.598930 -0.956140
v 0.124386 1.293885 -0.821739
v 0.226443 1.011032 -0.880642
v 0.291878 0.566553 -0.855792
v 0.012477 1.380017 -0.711742
v 0.176362 1.276456 -0.651510
v 0.326748 0.977396 -0.552127
v 0.424426 0.522105 -0.421680
v 0.063537 1.271722 -0.520632
v 0.110018 0.981151 -0.369390
v 0.140689 0.544700 -0.239538
v -0.084703 0.782986 -0.507188
v -0.007059 0.820126 -0.838500
v 0.232534 0.816542 -0.594295
vn -0.9362 0.2190 -0.2748
vn 0.7855 0.2161 -0.5799
vn 0.2127 0.0780 0.9740
vn 0.3392 0.2556 0.9053
vn -0.0000 -1.0000 -0.0000
vn 0.2166 -0.0374 0.9755
vn 0.7380 -0.1172 -0.6645
vn -0.9274 0.2759 -0.2526
vn 0.2710 -0.3506 0.8964
vn 0.7411 -0.1814 -0.6464
vn -0.9714 0.0942 -0.2178
vn -0.4361 0.8720 0.2224
vn -0.8161 0.4719 0.3337
vn -0.8787 0.2492 0.4072
vn -0.7162 0.3483 -0.6048
vn -0.7625 0.0574 -0.6445
vn -0.3803 0.8762 -0.2961
vn 0.2433 0.2811 -0.9283
vn 0.2307 -0.0204 -0.9728
vn 0.1817 0.8554 -0.4850
vn 0.8974 0.3729 -0.2358
vn 0.9524 0.1247 -0.2780
vn 0.5543 0.8280 -0.0845
vn 0.5715 0.3047 0.7619
vn 0.3949 0.8406 0.3708
vn -0.0622 -0.9967 -0.0528
vn 0.6063 0.4739 0.6386
vn -0.2068 0.2642 0.9421
vn -0.0537 0.8625 0.5031
vn -0.1779 0.4318 0.8843
vn 0.6908 -0.2877 -0.6634
vn -0.8575 -0.4530 -0.2440
vt 1.000000 0.500000
vt 1.000000 1.000000
vt 0.666667 1.000000
vt 0.666667 0.500000
vt 0.333333 1.000000
vt 0.333333 0.500000
vt -0.000000 1.000000
vt -0.000000 0.500000
vt 0.750000 0.490000
vt 0.957846 0.130000
vt 0.542154 0.130000
vt 0.666667 0.833333
vt 0.583333 1.000000
vt 0.500000 0.833333
vt 0.666667 0.666667
vt 0.500000 0.666667
vt 0.666667 0.500000
vt 0.500000 0.500000
vt 0.333333 0.833333
vt 0.333333 0.666667
vt 0.333333 0.500000
vt 0.416667 1.000000
vt 0.166667 0.833333
vt 0.166667 0.666667
vt 0.166667 0.500000
vt 0.250000 1.000000
vt 0.000000 0.833333
vt 0.000000 0.666667
vt 0.000000 0.500000
vt 0.083333 1.000000
vt 1.000000 0.500000
vt 1.000000 0.666667
vt 0.833333 0.666667
vt 0.833333 0.500000
vt 1.000000 0.833333
vt 0.916667 1.000000
vt 0.833333 0.833333
vt 0.750000 1.000000
s 0
usemtl shroom_1
f 1/1/1 2/2/1 4/3/1 3/4/1
f 3/4/2 4/3/2 6/5/2 5/6/2
f 2/7/3 6/5/3 9/5/3 7/7/3
f 5/6/4 6/5/4 2/7/4 1/8/4
f 1/9/5 3/10/5 5/11/5
f 7/7/6 9/5/6 12/5/6 10/7/6
f 6/5/7 4/3/7 8/3/7 9/5/7
f 4/3/8 2/2/8 7/2/8 8/3/8
f 10/7/9 12/5/9 34/5/9 32/7/9
f 9/5/10 8/3/10 11/3/10 12/5/10
f 8/3/11 7/2/11 10/2/11 11/3/11
f 12/5/31 11/3/31 33/3/31 34/5/31
f 11/3/32 10/2/32 32/2/32 33/3/32
usemtl shroom_2
f 13/12/12 25/13/12 16/14/12
f 14/15/13 13/12/13 16/14/13 17/16/13
f 15/17/14 14/15/14 17/16/14 18/18/14
f 17/16/15 16/14/15 19/19/15 20/20/15
f 18/18/16 17/16/16 20/20/16 21/21/16
f 16/14/17 25/22/17 19/19/17
f 20/20/18 19/19/18 22/23/18 23/24/18
f 21/21/19 20/20/19 23/24/19 24/25/19
f 19/19/20 25/26/20 22/23/20
f 23/24/21 22/23/21 26/27/21 27/28/21
f 24/25/22 23/24/22 27/28/22 28/29/22
f 22/23/23 25/30/23 26/27/23
f 28/31/24 27/32/24 30/33/24 31/34/24
f 26/35/25 25/36/25 29/37/25
f 18/18/26 21/21/26 24/25/26 28/29/26 31/34/26 15/17/26
f 27/32/27 26/35/27 29/37/27 30/33/27
f 31/34/28 30/33/28 14/15/28 15/17/28
f 29/37/29 25/38/29 13/12/29
f 30/33/30 29/37/30 13/12/30 14/15/30
