# Blender 3.6.1
# www.blender.org
mtllib poissonopenglverylow.mtl
o Sphere.006
v -1.220865 0.013251 -0.492159
v -1.217595 -0.070103 -0.478477
v -1.216673 -0.151063 -0.453607
v 3.308995 0.022603 -0.007238
v 2.981539 -0.209790 -0.005241
v 2.478815 -0.299124 -0.002151
v 2.025716 -0.312555 -0.000336
v 1.685544 -0.329545 0.000007
v 1.324324 -0.359382 0.000000
v 0.901258 -0.421998 -0.000000
v 0.399147 -0.474969 -0.000000
v -0.109313 -0.457946 -0.000000
v -0.528146 -0.398715 -0.000000
v -1.216672 -0.151063 0.453607
v -1.231429 -0.074189 0.483780
v -1.282169 -0.003718 0.515752
v 0.604171 0.611372 0.368914
v 3.207175 0.298814 -0.007130
v 3.013904 0.487737 -0.006981
v 2.700333 0.663089 -0.006765
v 2.250403 0.800545 -0.006416
v 1.735296 0.911354 -0.005918
v 1.150997 0.976518 -0.005178
v 0.493821 0.957904 -0.004168
v -0.156004 0.862607 -0.003371
v 1.257023 1.185979 -0.003644
v 0.563692 -0.581055 -0.012705
v 3.388510 -0.186805 -0.006500
v -0.748245 -0.224187 -0.509387
v -1.234821 -0.267903 0.647067
v -1.219010 -0.028651 -0.486367
v -1.216913 -0.110807 -0.467091
v 2.746609 -0.267869 -0.003799
v 2.240660 -0.305604 -0.001105
v 1.848099 -0.320424 -0.000028
v 1.512210 -0.341051 0.000002
v 1.122304 -0.387854 -0.000000
v 0.657707 -0.454564 -0.000000
v 0.137409 -0.474835 -0.000000
v -0.327430 -0.430814 -0.000000
v 0.587689 -0.399049 -0.172720
v -3.533147 0.018930 0.039679
v -1.220677 -0.112025 0.468525
v -1.253425 -0.038353 0.499598
v 0.183718 -0.430236 0.191585
v 3.126421 0.400840 -0.007064
v 2.866863 0.574588 -0.006879
v 2.480591 0.733730 -0.006601
v 2.001622 0.860204 -0.006190
v 1.453221 0.952114 -0.005590
v 0.826614 0.978778 -0.004674
v 0.166588 0.915986 -0.003742
v 3.161699 -0.107005 -0.006342
v 3.369305 -0.060956 0.045992
v 3.264223 0.169098 -0.007187
v 3.427465 -0.015980 -0.054412
v 0.593331 0.865151 -0.276514
v 2.808801 0.716547 -0.006931
v 3.328307 0.421230 -0.007307
v 2.614079 -0.418626 -0.001842
vn 0.1438 -0.1293 -0.9811
vn 0.1321 -0.1810 -0.9746
vn 0.1137 -0.2659 -0.9573
vn 0.1035 -0.3153 -0.9433
vn -0.1081 -0.9795 -0.1702
vn 0.0323 -0.9751 0.2196
vn 0.0441 -0.9907 0.1291
vn 0.0560 -0.9974 0.0456
vn 0.0662 -0.9976 -0.0195
vn 0.0955 -0.9786 -0.1824
vn 0.1310 -0.9294 -0.3452
vn 0.1413 -0.9149 -0.3781
vn 0.1242 -0.9289 -0.3489
vn 0.0742 -0.9403 -0.3323
vn 0.2678 -0.2980 0.9162
vn 0.3320 -0.5738 0.7487
vn -0.1106 -0.6919 -0.7135
vn 0.0244 -0.2599 -0.9653
vn 0.0749 -0.9491 0.3058
vn 0.1207 -0.9026 0.4132
vn 0.3010 -0.3483 -0.8878
vn -0.1454 -0.9090 0.3906
vn 0.0489 -0.3705 0.9275
vn 0.0298 -0.9538 -0.2990
vn 0.0558 -0.9948 -0.0854
vn 0.0431 -0.9813 -0.1876
vn 0.0950 -0.9740 0.2055
vn 0.0662 -0.9978 -0.0052
vn 0.1349 -0.8735 0.4678
vn 0.1266 -0.8980 0.4214
vn -0.1265 -0.9379 0.3230
vn 0.1056 -0.3455 0.9325
vn 0.1055 -0.3459 0.9323
vn 0.1700 -0.2971 0.9396
vn 0.8112 0.2481 -0.5296
vn 0.9133 0.4017 -0.0670
vn -0.1603 0.9177 0.3635
vn 0.1463 0.1885 0.9711
vn 0.0920 0.1545 0.9837
vn 0.1464 0.4533 0.8792
vn 0.1412 0.4842 0.8635
vn 0.1290 0.5347 0.8352
vn 0.1126 0.5819 0.8054
vn 0.0912 0.6249 0.7753
vn 0.0553 0.6729 0.7377
vn 0.1354 0.7087 -0.6924
vn 0.1492 0.6252 -0.7660
vn 0.0692 0.8649 -0.4971
vn 0.1127 0.7847 -0.6095
vn -0.0594 0.9381 -0.3412
vn 0.0058 0.9208 -0.3899
vn -0.1499 0.9030 -0.4028
vn -0.1191 0.9258 -0.3588
vn 0.4013 0.1223 0.9077
vn 0.1872 0.2433 -0.9517
vn 0.0836 0.1585 -0.9838
vn 0.1043 0.1778 -0.9785
vn 0.1559 0.5394 -0.8275
vn 0.1553 -0.0815 -0.9845
vn -0.0000 0.0084 -1.0000
vn -0.0007 0.0077 -1.0000
vn 0.0104 0.0346 -0.9993
vn 0.0051 0.0203 -0.9998
vn -0.0015 0.0081 -1.0000
vn 0.0021 0.0127 -0.9999
vn 0.0009 0.0098 -1.0000
vn 0.0148 -0.1108 0.9937
vn 0.0084 -0.1061 0.9943
vn 0.0047 -0.0714 0.9974
vn 0.0084 -0.0858 0.9963
vn 0.0066 -0.0822 0.9966
vn 0.0061 -0.0793 0.9968
vn 0.0155 -0.1103 0.9938
vn 0.0182 -0.1180 0.9928
vn 0.0050 -0.0730 0.9973
vn 0.0041 -0.0685 0.9976
vn 0.0022 0.0044 1.0000
vn 0.0028 0.0059 1.0000
vn -0.0013 -0.0001 -1.0000
vn -0.0012 -0.0003 -1.0000
vn -0.0012 -0.0005 -1.0000
vn -0.0011 -0.0008 -1.0000
vn 0.0052 0.0084 1.0000
vn -0.7622 -0.3925 -0.5148
vn -0.8454 -0.3355 -0.4156
vn -0.9563 -0.1784 -0.2315
vn -0.9907 -0.0537 -0.1254
vn -0.2222 -0.1432 -0.9644
vn -0.2213 -0.1896 -0.9566
vn -0.2202 -0.2662 -0.9384
vn -0.2197 -0.3110 -0.9247
vn 0.1011 -0.6168 0.7806
vn -0.1092 -0.9728 -0.2044
vn -0.0005 -0.9153 -0.4028
vn -0.0582 -0.8495 -0.5244
vn -0.0947 -0.7611 -0.6416
vn 0.1140 -0.4825 -0.8684
vn 0.0163 0.9945 0.1032
vn -0.0663 -0.9682 0.2414
vn -0.0005 -0.9739 0.2268
vn 0.3173 -0.5643 -0.7622
vn -0.1171 -0.9417 0.3154
vn 0.1773 -0.7001 0.6917
vn 0.1448 -0.2262 0.9633
vn -0.1897 -0.3674 0.9105
vn -0.1886 -0.4129 0.8910
vn 0.1633 0.2209 0.9615
vn -0.1843 -0.4893 0.8524
vn -0.1800 -0.5345 0.8257
vn -0.1519 0.6448 0.7491
vn 0.0672 -0.1937 0.9787
vn -0.0908 0.7161 0.6920
vn -0.1148 0.6988 0.7060
vn -0.1285 -0.9237 -0.3610
vn 0.3805 0.3006 0.8746
vn 0.1462 0.2458 -0.9582
vn 0.0060 0.7112 0.7030
vn -0.0445 0.7254 0.6869
vn 0.4876 0.2141 0.8464
vn 0.7065 0.5595 -0.4333
vn 0.0044 -0.0004 -1.0000
vn 0.1036 -0.5740 -0.8123
vn 0.0525 -0.0819 -0.9953
vn -0.1805 0.5846 -0.7910
vn -0.0028 0.0116 -0.9999
vn -0.0036 0.0151 -0.9999
vn -0.0021 0.0094 -1.0000
vn -0.0382 -0.3067 0.9510
vn -0.1353 -0.8464 0.5151
vn -0.0001 -0.1190 0.9929
vn -0.0111 -0.1627 0.9866
vn -0.0012 -0.0009 -1.0000
vn 0.0028 0.0114 0.9999
vn -0.1264 -0.1896 -0.9737
vn -0.1066 -0.1408 -0.9843
vn -0.1605 -0.3144 -0.9356
vn -0.1508 -0.2686 -0.9514
vt 0.597438 0.589790
vt 0.734375 0.312500
vt 0.750000 0.312500
vt 0.718750 0.312500
vt 0.703125 0.312500
vt 0.687500 0.312500
vt 0.412593 0.129670
vt 0.500000 0.845510
vt 0.500000 0.813063
vt 0.500000 0.781320
vt 0.500000 0.750000
vt 0.500000 0.718750
vt 0.500000 0.687500
vt 0.500000 0.656250
vt 0.500000 0.625000
vt 0.500000 0.593750
vt 0.500000 0.562500
vt 0.507812 0.967061
vt 0.539086 0.943380
vt 0.515625 1.000000
vt 0.500000 0.934122
vt 0.500000 0.468750
vt 0.500000 0.437500
vt 0.703300 0.920661
vt 0.500000 0.906250
vt 0.500000 0.878378
vt 0.401448 0.511370
vt 0.316295 0.923533
vt 0.492188 0.967061
vt 0.484375 1.000000
vt 0.312500 0.312500
vt 0.296875 0.312500
vt 0.281250 0.312500
vt 0.265625 0.312500
vt 0.102276 0.527373
vt 0.250000 0.312500
vt 0.007812 0.967061
vt 0.040861 0.919224
vt 0.015625 1.000000
vt 0.000000 0.934122
vt 0.000000 0.448725
vt 0.124046 0.152110
vt 0.000000 0.906250
vt 0.000000 0.878378
vt 0.000000 0.845439
vt 0.000000 0.812500
vt 0.000000 0.781250
vt 0.000000 0.750000
vt 0.000000 0.718750
vt 0.000000 0.687500
vt 0.000000 0.656250
vt 0.000000 0.625000
vt 1.000000 0.718750
vt 0.949426 0.559457
vt 1.000000 0.687500
vt 1.000000 0.750000
vt 1.000000 0.656250
vt 1.000000 0.625000
vt 1.000000 0.593750
vt 1.000000 0.562500
vt 1.000000 0.531250
vt 1.000000 0.500000
vt 0.992188 0.967061
vt 0.984375 1.000000
vt 1.000000 0.906250
vt 1.000000 0.878378
vt 1.000000 0.845439
vt 1.000000 0.812500
vt 1.000000 0.781250
vt 0.000000 0.629946
vt 0.000000 0.593750
vt 0.500000 0.596678
vt 0.507261 0.964736
vt 0.000601 0.912436
vt 0.000000 0.813494
vt 0.500000 0.883312
vt 0.296824 0.312500
vt 0.500000 0.531250
vt 0.500000 0.500000
vt 0.000000 0.562500
vt 0.000000 0.531250
vt 0.000000 0.500000
vt 1.000000 0.934122
vt 0.706212 0.312500
s 0
f 41/1/1 31/2/1 1/3/1
f 41/1/2 2/4/2 31/2/2
f 41/1/3 32/5/3 2/4/3
f 32/5/4 41/1/4 3/6/4
f 3/6/5 41/1/5 42/7/5
f 41/1/6 34/8/6 7/9/6
f 41/1/7 7/9/7 35/10/7
f 41/1/8 35/10/8 8/11/8
f 41/1/9 8/11/9 36/12/9
f 41/1/10 36/12/10 9/13/10
f 41/1/11 9/13/11 37/14/11
f 41/1/12 37/14/12 10/15/12
f 41/1/13 10/15/13 38/16/13
f 41/1/14 38/16/14 11/17/14
f 53/18/15 56/19/15 4/20/15
f 5/21/16 56/19/16 53/18/16
f 41/1/17 40/22/17 13/23/17
f 56/24/18 33/25/18 6/26/18
f 38/16/19 45/27/19 11/17/19
f 10/15/20 45/27/20 38/16/20
f 54/28/21 53/29/21 4/30/21
f 40/22/22 45/27/22 13/23/22
f 33/25/23 54/28/23 6/26/23
f 34/8/24 45/27/24 7/9/24
f 35/10/25 45/27/25 8/11/25
f 7/9/26 45/27/26 35/10/26
f 36/12/27 45/27/27 9/13/27
f 8/11/28 45/27/28 36/12/28
f 37/14/29 45/27/29 10/15/29
f 9/13/30 45/27/30 37/14/30
f 45/27/31 14/31/31 42/7/31
f 14/31/32 45/27/32 43/32/32
f 43/32/33 45/27/33 15/33/33
f 44/34/34 17/35/34 16/36/34
f 55/37/35 54/38/35 4/39/35
f 18/40/36 54/38/36 55/37/36
f 17/35/37 57/41/37 42/42/37
f 54/28/38 46/43/38 19/44/38
f 54/28/39 19/44/39 47/45/39
f 17/35/40 20/46/40 48/47/40
f 17/35/41 48/47/41 21/48/41
f 17/35/42 21/48/42 49/49/42
f 17/35/43 49/49/43 22/50/43
f 17/35/44 22/50/44 50/51/44
f 17/35/45 50/51/45 23/52/45
f 49/53/46 57/54/46 22/55/46
f 21/56/47 57/54/47 49/53/47
f 50/57/48 57/54/48 23/58/48
f 22/55/49 57/54/49 50/57/49
f 51/59/50 57/54/50 24/60/50
f 23/58/51 57/54/51 51/59/51
f 52/61/52 57/54/52 25/62/52
f 24/60/53 57/54/53 52/61/53
f 56/24/54 55/63/54 4/64/54
f 46/65/55 56/24/55 19/66/55
f 47/67/56 56/24/56 20/68/56
f 19/66/57 56/24/57 47/67/57
f 48/69/58 57/54/58 21/56/58
f 41/1/59 1/3/59 57/54/59
f 50/51/60 26/70/60 22/50/60
f 23/52/61 26/70/61 50/51/61
f 48/47/62 26/70/62 20/46/62
f 21/48/63 26/70/63 48/47/63
f 51/71/64 26/70/64 23/52/64
f 49/49/65 26/70/65 21/48/65
f 22/50/66 26/70/66 49/49/66
f 38/16/67 27/72/67 10/15/67
f 11/17/68 27/72/68 38/16/68
f 36/12/69 27/72/69 8/11/69
f 9/13/70 27/72/70 36/12/70
f 34/8/71 27/72/71 6/26/71
f 7/9/72 27/72/72 34/8/72
f 37/14/73 27/72/73 9/13/73
f 10/15/74 27/72/74 37/14/74
f 35/10/75 27/72/75 7/9/75
f 8/11/76 27/72/76 35/10/76
f 53/18/77 28/73/77 4/20/77
f 5/21/78 28/73/78 53/18/78
f 18/40/79 59/74/79 55/37/79
f 46/43/80 59/74/80 18/40/80
f 19/44/81 59/74/81 46/43/81
f 20/46/82 58/75/82 47/45/82
f 6/26/83 60/76/83 33/25/83
f 44/34/84 30/77/84 16/36/84
f 15/33/85 30/77/85 44/34/85
f 43/32/86 30/77/86 15/33/86
f 14/31/87 30/77/87 43/32/87
f 1/3/88 31/2/88 42/7/88
f 31/2/89 2/4/89 42/7/89
f 2/4/90 32/5/90 42/7/90
f 32/5/91 3/6/91 42/7/91
f 45/27/92 34/8/92 6/26/92 54/28/92
f 41/1/93 45/27/93 42/7/93
f 41/1/94 11/17/94 39/78/94
f 41/1/95 39/78/95 12/79/95
f 41/1/96 12/79/96 40/22/96
f 56/24/97 5/21/97 33/25/97
f 45/27/98 41/1/98 13/23/98
f 12/79/99 39/78/99 45/27/99
f 39/78/100 11/17/100 45/27/100
f 5/21/101 53/29/101 54/28/101
f 40/22/102 12/79/102 45/27/102
f 33/25/103 5/21/103 54/28/103
f 17/35/104 44/34/104 15/33/104 45/27/104
f 42/7/105 14/31/105 43/32/105
f 42/7/106 43/32/106 15/33/106
f 47/45/107 20/46/107 17/35/107 54/28/107
f 42/7/108 15/33/108 44/34/108
f 42/7/109 44/34/109 16/36/109
f 42/7/110 16/36/110 17/35/110
f 17/35/111 45/27/111 54/28/111
f 17/35/112 24/80/112 52/81/112
f 17/35/113 52/81/113 25/82/113
f 17/35/114 25/82/114 57/41/114
f 54/28/115 18/40/115 46/43/115
f 57/54/116 48/69/116 20/68/116 56/24/116
f 17/35/117 23/52/117 51/71/117
f 17/35/118 51/71/118 24/80/118
f 18/83/119 55/63/119 56/24/119
f 46/65/120 18/83/120 56/24/120
f 59/74/121 28/39/121 4/39/121 55/37/121
f 6/26/122 34/8/122 41/1/122 56/24/122
f 57/54/123 56/24/123 41/1/123
f 57/54/124 1/3/124 42/7/124
f 24/80/125 52/81/125 26/70/125
f 52/81/126 25/82/126 26/70/126
f 51/71/127 24/80/127 26/70/127
f 12/79/128 40/22/128 27/72/128
f 40/22/129 13/23/129 27/72/129
f 11/17/130 39/78/130 27/72/130
f 39/78/131 12/79/131 27/72/131
f 59/74/132 19/44/132 47/45/132 58/75/132
f 28/73/133 5/21/133 33/25/133 60/76/133
f 2/4/134 31/2/134 29/84/134
f 31/2/135 1/3/135 29/84/135
f 3/6/136 32/5/136 29/84/136
f 32/5/137 2/4/137 29/84/137
